<svg width="186" height="214" viewBox="0 0 186 214" fill="none" xmlns="http://www.w3.org/2000/svg">
<path d="M83.3855 4.60218L7.24111 50.6235C2.74656 53.34 0 58.2092 0 63.4609V150.499C0 155.772 2.76898 160.658 7.29296 163.368L83.4364 208.97C88.1054 211.766 93.9228 211.814 98.6373 209.095L177.994 163.329C182.638 160.65 185.5 155.697 185.5 150.335V63.6254C185.5 58.2851 182.661 53.3475 178.045 50.6613L98.6897 4.47546C93.9488 1.71625 88.08 1.76485 83.3855 4.60218Z" fill="#00CF5D"/>
<path d="M121.07 89.75C121.07 91.4068 119.726 92.75 118.07 92.75H102.27C100.613 92.75 99.2695 94.0931 99.2695 95.75V151C99.2695 152.657 97.9264 154 96.2695 154H88.8195C87.1627 154 85.8195 152.657 85.8195 151V95.75C85.8195 94.0931 84.4764 92.75 82.8195 92.75H67.0195C65.3627 92.75 64.0195 91.4068 64.0195 89.75V84.6999C64.0195 83.0431 65.3627 81.7 67.0195 81.7H118.07C119.726 81.7 121.07 83.0431 121.07 84.7V89.75Z" fill="black"/>
</svg>
